<?xml version="1.0" encoding="UTF-8"?>
<svg xmlns="http://www.w3.org/2000/svg" viewBox="0 0 400 462.57">
  <defs>
    <style>
      .cls-1 {
        fill: #1a1e1d;
      }

      .cls-2 {
        fill: #070706;
      }

      .cls-3 {
        fill: #de8b33;
      }

      .cls-4 {
        fill: #fff;
      }

      .cls-5 {
        fill: #111e1d;
      }

      .cls-6 {
        fill: #f8eedb;
      }

      .cls-7 {
        fill: #1b1e1d;
      }

      .cls-8 {
        fill: #f8eeda;
      }

      .cls-9 {
        fill: #de8a32;
      }

      .cls-10 {
        fill: #050605;
      }

      .cls-11 {
        fill: #1b1e1c;
      }

      .cls-12 {
        fill: #060706;
      }
    </style>
  </defs>
  <g id="_レイヤー_2" data-name="レイヤー 2">
    <rect class="cls-4" x="102.84" y="266.08" width="200" height="195.93"/>
    <path class="cls-4" d="M342.09,284.09c-4.71-3.47-9.84-5.63-15.12-6.66-.97-.3-2-.52-3.06-.68-8.41-5.03-18.07-7.89-28.35-7.89-23.36,0-43.54,14.77-53.06,36.19-3.55,2.13-7.05,4.33-10.53,6.57-3.17-6.72-7.84-12.97-13.76-18.59,1.31-1.38,2.54-2.82,3.64-4.36,2.44-3.42-1.66-8.89-5.65-7.34-2.83,1.09-5.67,2.19-8.5,3.28-17.96-12.21-42.79-19.77-70.23-19.77-54.79,0-99.21,30.14-99.21,67.32,0,21.09,14.3,39.91,36.67,52.25-.28,1.76.35,3.6,2.41,4.72,5.38,2.93,9.94,7.26,15.33,10.06,2.42,1.25,4.94,1.96,7.51,2.32,2.85.75,5.63.84,8.67.21.56-.03,1.13-.07,1.69-.11,1.39-.1,2.47-.65,3.26-1.44.14-.06.27-.1.41-.16.97-.41,1.98-1.11,2.71-1.99,6.63.95,13.51,1.45,20.56,1.45,54.79,0,99.21-30.14,99.21-67.32,0-1.83-.11-3.64-.32-5.44.2-.01.4-.03.6-.05-.18,2.02-.28,4.07-.28,6.14,0,35.32,26.36,63.95,58.88,63.95.55,0,1.1-.03,1.65-.05-.71.99-1.47,1.95-2.33,2.84-2.96,3.07-6.81,4.96-10.28,7.36-4.35,3.02-7.75,6.88-10.88,11.01-1.75,1.82-3.39,3.75-4.88,5.87-.49.7-.76,1.39-.86,2.05-.12.17-.24.34-.37.51-6.03,8.27-12.06,16.53-18.08,24.8-3.8,5.21,4.88,10.2,8.63,5.05,6.03-8.27,12.06-16.53,18.08-24.8,1.84-2.52,3.62-5.13,5.49-7.65,11.36-11.63,28.39-17.08,36.62-31.95,9.18-4.19,17.17-10.84,23.29-19.18,1.59-.33,3.05-1.37,3.74-3.29.64-1.79,1.17-3.61,1.64-5.44,2-3.89,3.63-8.04,4.85-12.38,3.65-6.2,6.53-12.8,8.24-19.68,4.3-17.3-3.71-37.17-18.03-47.73Z"/>
  </g>
  <g id="_レイヤー_1" data-name="レイヤー 1">
    <g>
      <path class="cls-7" d="M221.67,6.51c58.06,18.03,115.68,37.58,173.75,55.61,5.3,1.31,6.25,6.97,1.51,9.8-64.05,25.28-130.46,44.08-194.95,68.28h-3.04c-31.22-10.98-62.33-22.47-93.74-32.92-32.54-10.83-69.12-19.75-99.94-34.43-5.66-2.69-7.68-6.67-1.41-10.18,32.18-10.56,64.42-21.01,96.66-31.38,25.58-7.38,51.14-15.46,76.7-24.25,7.78-3.03,15.47-5.18,23.08-6.44,7.25,1.96,14.37,3.93,21.37,5.91Z"/>
      <path class="cls-3" d="M335.11,372.72c12.75-17.59,20.21-40.44,15.05-62.13-5.76-24.24-28.91-38.06-51.78-24.43-3.75,2.23-7.06,5.69-10.68,8.04-7.41,4.8-16.52,7.54-25.28,8.59v19.55c0,.34-.91.85-1.36.84-1.32-.02-10.59-7.92-12.78-9.28-4.89-3.03-13.41-7.37-18.9-4.5l-1.51-.03c-14.26-11.62-43.31-13.03-56.47.84l-1.5.28c-5.18-3.74-11.76.74-16.48,3.62-4.02,2.45-7.8,5.39-11.31,8.52-1.4,1.18-2.64.19-3.02-1.44-.55-2.38-.93-6.78-1.13-9.33-.14-1.78.49-8.12-.53-8.83-.62-.43-6.2-1.32-7.62-1.74-13.52-4.02-16.45-8.69-27.27-15.13-15.94-9.49-34.7-5.76-45.77,8.97-16.91,22.5-5.86,59.79,10.69,79.8-.87,1.4-1.56.84-2.52-.1-15.71-15.42-27.45-40.78-29.58-62.63-2.83-28.97,6.24-50.65,22.33-73.92,15.68-22.67,34.49-44.99,54.53-64.14,53.58,24.82,116.92,25.38,170.55,2,2.14-.81,3.94-1.43,6.24-.54,2.65,1.03,13.64,12.67,16.01,15.26,19.75,21.62,45.99,54.62,55.39,82.43,11.89,35.16,2.5,75.07-24.18,100.12l-1.13-.68Z"/>
      <path class="cls-1" d="M33.33,119.41c9.06-18.38,26.11-10.16,38.72-1,8.72,6.33,16.38,14.14,24.06,21.66.3.55,1.1-.49,1.1-.56v-23.4c28.76,9.23,56.99,20.14,85.62,29.75,4.01,1.35,14.11,5.43,17.66,5.51,2.78.07,9.15-2.36,12.1-3.31l91.13-31.95v22.3c0,.08.66,1.45.82,1.37,7.64-7.24,15.28-15.16,23.78-21.37,11.41-8.34,27.4-16.89,37.07-1.2,9.48,21.78,8.99,47.19,7.17,70.79-1.34,17.35-3.84,34.99-9.08,51.3-1.52,4.12-1.43,7.11.27,8.98.34.74,1.17,1.76,1.65,2.75,12.77,25.85,19.79,53.65,9.8,82.02l.11,1.13c-5.43,16.93-14.61,32.03-26.43,45.16-1.94,1.2-5.3,4.56-7.31,7.17-.87,4-2.08,2.47-3.63-.15-3.74-.66-5.08-1.35-2.91-5.11-1.3,2.96-6.34,4.02-8.33,1.46l7.12-7.27-.35-.51c.57-.71,1.12-1.47,1.65-2.2,2.61-1.04,4.82-4.16,6.59-6.35,25.91-31.95,30.09-72.3,10.77-108.76-12.02-22.68-40.55-60.49-59.75-77.37-.68-.6-4.16-3.71-4.42-3.84-2.56-1.18-9.55,2.91-12.52,3.98-41.71,14.96-81.79,18.44-125.15,8.13-12.96-3.08-26.31-7.48-38.19-13.44-14.65,13.88-27.62,29.48-39.98,45.4-13.92,17.94-28.82,37.07-33.9,59.72-7.94,35.4,3.13,67.1,26.72,93.34.65.72,1.11,1.36,2.2,1.38,13.78,16.66,34.35,25.2,49.01,39.1,5.47,9.99-4.22,12.8-11.88,8.18-10.76-6.4-21.28-12.98-31.55-19.76l-13.72,59.09-1.22.4c-.29,0-1.09.54-1.9.55-3.1.06-12.77.66-13.02-3.58l15.32-68.98c.98-4.49-4.99-7.93-7.85-11.14-19.73-22.2-33.16-54.44-30-84.53,1.87-17.79,7.52-29.74,14.86-45.44,1.11-.56,2.31-3.31,2.11-5.42-13.75-38.44-17.49-84.48-4.31-123.99Z"/>
      <path class="cls-7" d="M229.38,309.39c9.19,10.93-.42,29.56-11.92,35.17-3.47,1.69-9.1,1.88-9.57,5.85-.85,7.25.22,11.12,5.8,15.69,11.77,9.64,32.64,8.04,42.35-3.89,4.09-5.03,6.06-15.02,14.5-11.65,6.6,2.63-.26,15.01-3.18,18.56-13.43,16.35-40.87,19.44-58.92,9.39-1.6-.89-6.28-4.65-7.42-4.65s-7.08,4.9-9.44,5.94c-18.3,8.1-44.44,5.52-57.75-10.38-3.31-3.96-9.37-14.65-3.78-18.66,6.35-4.57,9.46,4.45,12.1,8.14,8.45,11.83,23.11,15.78,36.86,11.62,4.35-1.31,13.39-5.82,14.06-10.72.24-1.76.15-11.29-.71-12.28-.44-.51-7.9-2.58-9.6-3.34-11.28-5.12-19.61-22.38-12.85-33.69,9.11-15.22,48.53-14.12,59.47-1.1Z"/>
      <path class="cls-3" d="M285,413.48l.9,1.23c-1.67,10.44,4.6,7.8,10.87,4.79,10.48-6.29,20.78-12.95,30.89-19.98.84-.16,1.49.21,1.99.87l14.09,60.65-.92.9c-29.9-.43-59.86.32-89.76,0l18.16-33.88c4.04-5.37,8.82-10.08,13.78-14.58Z"/>
      <path class="cls-3" d="M116.49,414.03c12.96,12.28,21.2,27.49,28.92,43.49.39.81,2.28,3.67,1.38,4.16-29.54.83-59.14-.21-88.68.26l14.32-61.68,26.26,17.51c7.08,4.14,21.11,11.9,17.79-3.75Z"/>
      <path class="cls-5" d="M333.46,374.93c1.83-.11,1.02.28.28,1.1-2.05,2.25-4.52,4.15-6.33,6.6,1.83.49,4.02.61,5.66-.52.72-.49,1.13-2.48,2.31-2.22,2.06,1.51-.85,2.98-.27,4.95,2.79-.28,4.34.54,4.97,3.3.88-.1.6-1.32,1.33-2.24,1.45-1.81,4.07-3.99,5.82-5.74.25-.25,1.42-1.93,1.65-.83-1.46,1.63-5.92,5.61-6.64,6.85-.55.95-.71,1.67-.54,2.76l16.03,69.97c-.36,4.38-9.8,3.63-13.02,3.58-.81-.01-1.61-.55-1.9-.55l-14.32-61.68-24.27,16.2c-7.34,4.38-22.53,14.29-19.23-2.99,14.73-13.35,35.41-22.48,48.46-38.55Z"/>
      <path class="cls-12" d="M35.54,248.82c.42-.9,1.39-2.48,1.54-3.15.75-3.31-3.32-11.88-4.44-15.71-8.28-28.24-12.46-83.85.7-110.56,1.15.52.2,1.7-.07,2.41-11.02,29.45-8.88,76.98-.08,107.05.93,3.19,4.98,12.58,5.07,14.77.06,1.29-.76,2.94-1.32,4.11-.12.26-1.01,2.29-1.4,1.07Z"/>
      <path class="cls-10" d="M363.75,248.27c-.4,1.21-1.37-.85-1.4-1.07-.83-5.14,2.67-13.34,3.89-18.74,6.39-28.49,12.04-82.47-.56-109.04-.27-.56-1.38-1.88-.27-2.21,13.95,22.63,7.8,84.28,1.93,110.15-1.06,4.66-4.45,13.42-4.66,17.42-.09,1.66.46,2.19,1.08,3.5Z"/>
      <path class="cls-12" d="M221.67,6.51c-.54,1.06-1.84.39-2.64.17-5.97-1.61-16.01-6.45-21.74-5.54-31.48,9.02-62.68,21.57-94.14,30.32-.8.22-2.1.88-2.64-.17C133.12,20.81,165.76,10.41,198.4.03c3.68-.52,18.59,5.03,23.27,6.48Z"/>
      <path class="cls-2" d="M375.32,334.18c-1.05-.54-.39-1.84-.17-2.64,8.63-31.04,3.99-50.17-9.47-78.3-.27-.56-1.38-1.88-.27-2.21,14.1,28.97,20.22,51.02,9.91,83.15Z"/>
      <path class="cls-7" d="M131.22,248.41c17.5-2.27,35.24,24.41,17.24,33.75-14.74,7.65-34.44-.71-35.28-18.22-.36-7.49,11.42-14.67,18.04-15.53Z"/>
      <path class="cls-11" d="M266.7,248.41c6.13-.27,15.41,4.98,19.14,9.76,2.51,3.21,1.63,6.75.65,10.59-3.74,14.63-21.85,20.22-34.35,13.2-16.84-9.46-.74-32.86,14.55-33.54Z"/>
      <path class="cls-8" d="M254.03,217.02c6.08-.83,15.48,1.17,18.53,7.07,5.55,10.75-4.39,14.48-12.6,17.58-5.38,2.03-15.15,5.62-20.5,3.41-6.84-2.83-4.79-11.97-2.1-17.19,2.81-5.45,10.68-10.04,16.67-10.86Z"/>
      <path class="cls-6" d="M140.05,217.03c12.39-1.44,25.54,7.9,25.45,21.06-.03,4.4-4.95,7.95-9.09,7.97-5.37.02-21.4-5.59-25.79-8.9-10.39-7.82-1.13-18.9,9.42-20.13Z"/>
      <path class="cls-3" d="M50.4,226.24c-1.28.87-2.23-2.59-2.47-3.3-7.24-20.84-8.41-67.32-3.31-88.67,1.99-8.31,3.68-13.48,12.9-8.49,13.95,7.56,26.49,24.37,38.04,35.2,2.17,3.03,2.59,6.1,1.38,9.63-.67,1.94-6.46,9.67-8.29,9.93-5.39.77-17.99-14.76-23.08-7.72-1.9,2.63.28,6.29,1.44,9,1.71,3.99,4.11,8.13,6.3,11.9l.16,1.83-23.06,30.68Z"/>
      <path class="cls-9" d="M348.77,123.37c3.22-.32,5.02,4.93,5.9,7.6,6.5,19.78,4.14,68.21-.99,88.78-.27,1.1-2.14,8.15-2.87,8.14l-23.71-30.23c1.82-5.5,9.71-16.97,9.69-22.36,0-2.29-2.58-4.53-4.74-4.66-4.69-.29-17.77,11.29-19.71,10.92-6.43-4.82-12.11-13.7-6.64-21.35,4.13-5.78,13.26-14.28,18.66-19.34,5.1-4.78,17.76-16.85,24.41-17.5Z"/>
    </g>
  </g>
</svg>